<svg width="16" height="16" viewBox="0 0 16 16" fill="none" xmlns="http://www.w3.org/2000/svg">
<g clip-path="url(#clip0)">
<path d="M15.144 5.43906L10.827 4.81106L8.90002 0.900057C8.80845 0.742522 8.67713 0.611782 8.51919 0.520906C8.36126 0.430031 8.18223 0.382202 8.00002 0.382202C7.8178 0.382202 7.63878 0.430031 7.48084 0.520906C7.32291 0.611782 7.19159 0.742522 7.10002 0.900057L5.17302 4.81206L0.856018 5.43906C0.671153 5.46557 0.497407 5.54332 0.35446 5.6635C0.211512 5.78369 0.105076 5.9415 0.0472061 6.11906C-0.0106635 6.29662 -0.0176535 6.48685 0.0270279 6.66818C0.0717093 6.84951 0.166276 7.01471 0.300018 7.14506L3.42302 10.1901L2.68602 14.4901C2.65451 14.674 2.67508 14.863 2.7454 15.0358C2.81572 15.2087 2.93299 15.3584 3.08395 15.468C3.23491 15.5777 3.41353 15.6429 3.59963 15.6563C3.78573 15.6698 3.97187 15.6309 4.13702 15.5441L8.00002 13.5131L11.861 15.5421C12.0262 15.6289 12.2123 15.6678 12.3984 15.6543C12.5845 15.6409 12.7631 15.5757 12.9141 15.466C13.065 15.3564 13.1823 15.2067 13.2526 15.0338C13.323 14.861 13.3435 14.672 13.312 14.4881L12.575 10.1881L15.7 7.14506C15.8334 7.0148 15.9278 6.84984 15.9724 6.6688C16.017 6.48776 16.0101 6.29785 15.9525 6.12052C15.8949 5.94319 15.7888 5.78551 15.6463 5.66527C15.5038 5.54502 15.3305 5.46702 15.146 5.44006L15.144 5.43906Z" fill="#F2C94C"/>
</g>
<defs>
<clipPath id="clip0">
<rect width="16" height="16" fill="white"/>
</clipPath>
</defs>
</svg>
